<svg xmlns="http://www.w3.org/2000/svg" width="96" height="96" viewBox="0 0 96 96" role="img" aria-labelledby="title desc"><title id="title">Gematria Calculator logo</title><desc id="desc">Letter G and number marks in a square badge.</desc><rect width="96" height="96" rx="12" fill="#102033"/><path d="M23 48c0-15 11-26 27-26 8 0 15 3 20 8l-8 9c-3-3-7-5-12-5-8 0-14 6-14 14s6 14 15 14c4 0 7-1 9-3v-6H48V42h25v23c-5 6-13 10-23 10-16 0-27-11-27-27z" fill="#fff"/><path d="M18 18h12v6H18zM66 72h12v6H66z" fill="#22c55e"/><path d="M67 18h11v6H67zM18 72h11v6H18z" fill="#f59e0b"/></svg>